<svg xmlns="http://www.w3.org/2000/svg" xmlns:xlink="http://www.w3.org/1999/xlink" viewBox="0 0 1024 490"><defs><style>.cls-1{fill:#fff;}.cls-2{fill:url(#linear-gradient);}</style><linearGradient id="linear-gradient" x1="466.19" y1="171.71" x2="1024" y2="171.71" gradientUnits="userSpaceOnUse"><stop offset="0" stop-color="#f0f"/><stop offset="0.01" stop-color="#f604fd"/><stop offset="0.06" stop-color="#cc17f2"/><stop offset="0.11" stop-color="#ab25ea"/><stop offset="0.16" stop-color="#9430e5"/><stop offset="0.2" stop-color="#8636e1"/><stop offset="0.24" stop-color="#8138e0"/><stop offset="0.87" stop-color="#00f7f7"/></linearGradient></defs><title>LOGO_WHITE</title><g id="Layer_2" data-name="Layer 2"><g id="Layer_1-2" data-name="Layer 1"><path class="cls-1" d="M106.83,397.34V490H86.07V439.52A57.19,57.19,0,0,1,71,447.69a51,51,0,0,1-17.53,3,51.49,51.49,0,0,1-20.77-4.22A54.81,54.81,0,0,1,15.72,435,54.21,54.21,0,0,1,4.23,418,51.82,51.82,0,0,1,0,397.14,51.15,51.15,0,0,1,4.23,376.4,54.34,54.34,0,0,1,32.65,348a51.33,51.33,0,0,1,20.77-4.23A52,52,0,0,1,74.28,348a54.3,54.3,0,0,1,17,11.47A53.23,53.23,0,0,1,102.7,376.4a52.11,52.11,0,0,1,4.13,20.74ZM53.42,430A32,32,0,0,0,66,427.43a32.63,32.63,0,0,0,10.38-7,34,34,0,0,0,7-10.4,31,31,0,0,0,2.62-12.62v-.2a32.06,32.06,0,0,0-2.52-12.62,32.55,32.55,0,0,0-7-10.4,33.93,33.93,0,0,0-10.38-7.07,31.39,31.39,0,0,0-12.8-2.62,30.82,30.82,0,0,0-12.6,2.62,33.57,33.57,0,0,0-17.44,17.47,31,31,0,0,0-2.62,12.62,31.41,31.41,0,0,0,2.62,12.82,33.87,33.87,0,0,0,7.06,10.4,32.41,32.41,0,0,0,10.38,7A31.93,31.93,0,0,0,53.42,430Z"/><path class="cls-1" d="M225.77,344.4v60.18a44.72,44.72,0,0,1-5.61,22.15A45.53,45.53,0,0,1,205,443,49.11,49.11,0,0,1,193,448.67a46,46,0,0,1-26.9,0A49.28,49.28,0,0,1,154,443a47.17,47.17,0,0,1-15.06-16.3,44.16,44.16,0,0,1-5.7-22.15V344.4H154v60.18a24.5,24.5,0,0,0,2,9.87,25.88,25.88,0,0,0,5.42,8.05,25.45,25.45,0,0,0,8.13,5.44,25.12,25.12,0,0,0,9.94,2,24.4,24.4,0,0,0,9.84-2,27,27,0,0,0,8.13-5.44,25,25,0,0,0,5.52-8.05,24.5,24.5,0,0,0,2-9.87V344.4Z"/><path class="cls-1" d="M302.67,344.2a51.8,51.8,0,0,1,20.82,4.22,55.28,55.28,0,0,1,17.1,11.48A53.11,53.11,0,0,1,352.16,377a52.51,52.51,0,0,1,4.23,20.93v52.14H335.63v-9.76a57.22,57.22,0,0,1-15.12,8.18,53.84,53.84,0,0,1-38.61-1.24,53.8,53.8,0,0,1-28.52-28.48,51.87,51.87,0,0,1-4.23-20.84A52.68,52.68,0,0,1,253.37,377a53.55,53.55,0,0,1,28.47-28.59A51.82,51.82,0,0,1,302.67,344.2Zm.1,86.55a31.2,31.2,0,0,0,12.8-2.63A33.55,33.55,0,0,0,333,410.6a31.11,31.11,0,0,0,2.63-12.66A31.64,31.64,0,0,0,333,385.08a33.55,33.55,0,0,0-17.43-17.52,32.46,32.46,0,0,0-25.6,0,33.62,33.62,0,0,0-17.44,17.52,31.63,31.63,0,0,0-2.62,12.86,31.1,31.1,0,0,0,2.62,12.66A34,34,0,0,0,279.59,421,33.57,33.57,0,0,0,290,428.12,31.16,31.16,0,0,0,302.77,430.75Z"/><path class="cls-1" d="M487.83,397.34a52.06,52.06,0,0,1-4.14,20.73,53,53,0,0,1-28.32,28.28,54.24,54.24,0,0,1-41.52,0,53.07,53.07,0,0,1-28.32-28.28,54.12,54.12,0,0,1,0-41.47,53.07,53.07,0,0,1,28.32-28.28,52.37,52.37,0,0,1,20.76-4.12,51.61,51.61,0,0,1,17.44,2.91,55.35,55.35,0,0,1,15,8.16V305.08h20.77v92.26Zm-53.12,32.41a31.77,31.77,0,0,0,12.56-2.52,32.09,32.09,0,0,0,17.28-17.31,31.86,31.86,0,0,0,2.51-12.58v-.2a31.13,31.13,0,0,0-2.51-12.48,32.35,32.35,0,0,0-17.28-17.21,32.56,32.56,0,0,0-25.12,0,32.25,32.25,0,0,0-10.35,6.94,33.65,33.65,0,0,0-7,10.37,31.62,31.62,0,0,0,0,25.16,33.65,33.65,0,0,0,7,10.37,32.42,32.42,0,0,0,10.35,6.94A31.77,31.77,0,0,0,434.71,429.75Z"/><path class="cls-1" d="M587.39,351.92a43.77,43.77,0,0,1,11.69,11.18l-11.69,9.28L583,376a25.42,25.42,0,0,0-9-8.05,25.3,25.3,0,0,0-21.87-1,26.14,26.14,0,0,0-8.07,5.44,25.76,25.76,0,0,0-5.44,8.05,24.49,24.49,0,0,0-2,9.86v59.79H515.83V344.2H536.6v7.72a45.92,45.92,0,0,1,11.89-5.69,45.94,45.94,0,0,1,27,0A46.08,46.08,0,0,1,587.39,351.92Z"/><path class="cls-1" d="M617.23,325.81V305.08H638v20.73ZM638,344.2V450.28H617.23V344.2Z"/><path class="cls-1" d="M719,429.55a31.13,31.13,0,0,0,14.51-3.43,33.4,33.4,0,0,0,11.09-9.05L761,429.75a53.63,53.63,0,0,1-18.14,14.94,53.31,53.31,0,0,1-44.34,1.46,54.08,54.08,0,0,1-17-11.37A53.4,53.4,0,0,1,670,417.87a53.14,53.14,0,0,1,0-41.27,53.51,53.51,0,0,1,11.49-16.91,54.08,54.08,0,0,1,17-11.37A52.57,52.57,0,0,1,761,364.72l-16.32,12.69a31.32,31.32,0,0,0-11.09-9.16,33.2,33.2,0,0,0-27.11-.82,32.13,32.13,0,0,0-17.34,17.2,32.29,32.29,0,0,0,0,25,32,32,0,0,0,7,10.3,33.5,33.5,0,0,0,10.38,7A31,31,0,0,0,719,429.55Z"/><path class="cls-2" d="M901,343.41a29.19,29.19,0,0,1-17.71-6L693.34,194.69a1.54,1.54,0,0,0-.91-.31,1.56,1.56,0,0,0-.78.22l-44.87,26.85a31.44,31.44,0,0,1-16.27,4.5,32,32,0,0,1-25.85-13L467.83,24.71a8.55,8.55,0,0,1,12.1-11.82L542,59.58c30.41,21.14,93.36,56.56,173.72,56.56h0c42.64,0,84.56-10.24,124.6-30.41L975.93,4.63a31.31,31.31,0,0,1,36.72,2.87,31,31,0,0,1,9.13,35.55l-93,281.17a29.28,29.28,0,0,1-19.61,18.06A30.13,30.13,0,0,1,901,343.41Zm-161.76-177a1.66,1.66,0,0,0-.78.21l-28.14,16.84a1.54,1.54,0,0,0-.74,1.22,1.5,1.5,0,0,0,.61,1.28L893.58,323.84a12.28,12.28,0,0,0,7.44,2.5,12.51,12.51,0,0,0,3.43-.48,12.31,12.31,0,0,0,8.16-7.4L938,241.7a1.52,1.52,0,0,0-.91-1.89L739.74,166.5A1.61,1.61,0,0,0,739.21,166.4ZM795,133a1.59,1.59,0,0,0-.77.21l-33.71,20.16a1.51,1.51,0,0,0,.25,2.71l181.59,67.47a1.89,1.89,0,0,0,.52.09,1.39,1.39,0,0,0,.66-.15,1.5,1.5,0,0,0,.78-.89l29-87.62a1.51,1.51,0,0,0-1.44-2ZM522.65,67a1.51,1.51,0,0,0-1.23,2.39L618.53,202.9a14.74,14.74,0,0,0,19.41,3.94l37.92-22.69a1.55,1.55,0,0,0,.73-1.22,1.52,1.52,0,0,0-.6-1.28L530.79,72.52c-2.89-2-5.28-3.78-7.22-5.25A1.52,1.52,0,0,0,522.65,67Zm116.63,62.31a1.53,1.53,0,0,0-1.33.79,1.51,1.51,0,0,0,.42,1.93l54.43,40.92a1.6,1.6,0,0,0,.91.3,1.66,1.66,0,0,0,.78-.21l21.34-12.77a1.51,1.51,0,0,0,.73-1.43,1.54,1.54,0,0,0-1-1.28L639.8,129.37A1.55,1.55,0,0,0,639.28,129.27Zm66.06,3.12a1.5,1.5,0,0,0-1.48,1.22,1.48,1.48,0,0,0,.95,1.7l31.81,11.82a1.61,1.61,0,0,0,.53.1,1.5,1.5,0,0,0,.77-.22l18.71-11.19a1.5,1.5,0,0,0,.68-1.68,1.52,1.52,0,0,0-1.45-1.12l-39.67-.3-1.07,0c-2.16,0-4.27-.09-6.37-.2ZM992.28,17.05a14.53,14.53,0,0,0-7.5,2.19l-157,93.91a1.51,1.51,0,0,0,.77,2.81h150a1.53,1.53,0,0,0,1.44-1l25.69-77.64a14.28,14.28,0,0,0-4-16.72A14.94,14.94,0,0,0,992.28,17.05Z"/></g></g></svg>