<?xml version="1.0" encoding="UTF-8"?>
<svg width="110px" height="27px" viewBox="0 0 110 27" version="1.1" xmlns="http://www.w3.org/2000/svg" xmlns:xlink="http://www.w3.org/1999/xlink">
    <!-- Generator: Sketch 46.2 (44496) - http://www.bohemiancoding.com/sketch -->
    <title>logo</title>
    <desc>Created with Sketch.</desc>
    <defs></defs>
    <g id="Page-1" stroke="none" stroke-width="1" fill="none" fill-rule="evenodd">
        <g id="logo" fill-rule="nonzero" fill="#FFFFFF">
            <path d="M15.5660105,13.3299213 L15.5660105,26.7060367 L12.5691601,26.7060367 L12.5691601,19.4188976 C11.9073788,19.9190932 11.173989,20.3166907 10.3937008,20.598294 C9.58205005,20.8897502 8.72550317,21.0363355 7.86312336,21.0313648 C6.83226126,21.0384189 5.81120247,20.8309626 4.8648294,20.4221785 C3.95094662,20.0292503 3.11935644,19.4675107 2.41364829,18.7664042 C1.70957788,18.0614298 1.14660809,17.2284893 0.754986877,16.312336 C0.34527283,15.3616391 0.137344132,14.3362508 0.144356955,13.3010499 C0.13692072,12.2714026 0.34491692,11.251582 0.754986877,10.3070866 C1.5485459,8.46656131 3.01652805,6.99961222 4.85761155,6.20734908 C5.80367444,5.79742109 6.82487543,5.58944419 7.85590551,5.59671916 C8.89103334,5.5904587 9.91626898,5.79835644 10.8671916,6.20734908 C11.7829582,6.59838956 12.6158318,7.16033433 13.3212598,7.86312336 C14.0233633,8.56374367 14.5831827,9.39366855 14.9698163,10.3070866 C15.3710883,11.2538367 15.5739973,12.2728032 15.5660105,13.3010499 L15.5660105,13.3299213 Z M7.85590551,18.0446194 C8.48009042,18.044915 9.09786096,17.9187091 9.67191601,17.673622 C10.2319341,17.4366665 10.7407737,17.0935184 11.1703412,16.6631234 C11.5973196,16.2296466 11.939976,15.7205571 12.1808399,15.161811 C12.4331563,14.5877546 12.5620128,13.9670793 12.5590551,13.3400262 L12.5590551,13.3111549 C12.5621743,12.6855476 12.4384216,12.0658024 12.1952756,11.4893701 C11.9589046,10.9281833 11.6157077,10.4182908 11.1847769,9.98805774 C10.7531642,9.55757604 10.2449855,9.21144657 9.68635171,8.96745407 C9.10377397,8.71317684 8.47421581,8.58431415 7.83858268,8.58923885 C7.21242367,8.58590922 6.59261368,8.71479034 6.01968504,8.96745407 C4.89065471,9.45784289 3.99054736,10.3594986 3.50209974,11.4893701 C3.24978332,12.0634265 3.1209268,12.6841018 3.12388451,13.3111549 C3.11864046,13.9477511 3.24750807,14.578317 3.50209974,15.161811 C3.74516844,15.721456 4.09084021,16.2306609 4.52125984,16.6631234 C4.95031117,17.0941436 5.45928078,17.4373794 6.01968504,17.673622 C6.59991064,17.9216752 7.22488965,18.0479485 7.85590551,18.0446194 L7.85590551,18.0446194 Z" id="Shape"></path>
            <path d="M32.7358268,5.68766404 L32.7358268,14.3750656 C32.7473185,15.4930462 32.4682621,16.5948466 31.9259843,17.5725722 C31.4018482,18.5243227 30.6499369,19.3312883 29.7375328,19.9212598 C29.1998022,20.2712227 28.617054,20.5465712 28.0052493,20.7397638 C26.7397639,21.1266899 25.3875327,21.1266899 24.1220472,20.7397638 C23.505346,20.5474997 22.9177053,20.2721342 22.3753281,19.9212598 C21.4738379,19.320977 20.728541,18.5143144 20.2013123,17.5682415 C19.6509916,16.5931613 19.3671946,15.4903362 19.3784777,14.3707349 L19.3784777,5.68766404 L22.3753281,5.68766404 L22.3753281,14.3750656 C22.371865,14.8648684 22.4701796,15.3500509 22.664042,15.7998688 C22.8492375,16.2330975 23.1147088,16.6273861 23.4464567,16.9619423 C23.7832028,17.2971378 24.1817712,17.5638306 24.6200787,17.7472441 C25.0737852,17.940014 25.562032,18.0382528 26.0549869,18.035958 C26.5433733,18.039241 27.0271055,17.9409214 27.4754593,17.7472441 C27.9112184,17.559119 28.3089522,17.2929848 28.6490814,16.9619423 C28.988471,16.6307032 29.2592478,16.2358203 29.4459318,15.7998688 C29.6397942,15.3500509 29.7381087,14.8648684 29.7346457,14.3750656 L29.7346457,5.68766404 L32.7358268,5.68766404 Z" id="Shape"></path>
            <path d="M43.8368766,5.65879265 C44.870041,5.6520396 45.8933948,5.8594629 46.8423885,6.267979 C47.7617735,6.66086869 48.5991391,7.22302991 49.3108924,7.92519685 C50.0237464,8.63085203 50.5912037,9.46953133 50.9811024,10.3937008 C51.3894332,11.3483791 51.5972732,12.3767691 51.5917323,13.4150919 L51.5917323,20.9418635 L48.5948819,20.9418635 L48.5948819,19.5329396 C47.9309392,20.0342227 47.1950774,20.4323279 46.4122047,20.7137795 C44.596152,21.3456203 42.6103503,21.2818443 40.8385827,20.5347769 C38.9853427,19.7496012 37.5092983,18.275627 36.7215223,16.4234908 C36.3124003,15.4736231 36.1044885,14.449301 36.1108924,13.4150919 C36.1055914,12.3769375 36.312911,11.3486914 36.7200787,10.3937008 C37.499534,8.53475906 38.9742744,7.05380268 40.8299213,6.26653543 C41.7794918,5.85839938 42.8033363,5.65146777 43.8368766,5.65879265 Z M43.8513123,18.1528871 C44.4871294,18.1581815 45.1168623,18.0287911 45.6990814,17.7732283 C46.8290533,17.2810525 47.7288733,16.3765862 48.2152231,15.2440945 C48.468375,14.6682214 48.5977214,14.0455885 48.5948819,13.4165354 C48.5994915,12.7779894 48.4701557,12.145572 48.2152231,11.560105 C47.7288733,10.4276132 46.8290533,9.52314698 45.6990814,9.03097113 C44.5192522,8.52470359 43.1833725,8.52470359 42.0035433,9.03097113 C40.8736116,9.52370104 39.9735115,10.4279301 39.485958,11.560105 C39.23148,12.1456662 39.1026351,12.7780881 39.1077428,13.4165354 C39.1044054,14.0454895 39.2332609,14.668127 39.485958,15.2440945 C39.7294143,15.8035261 40.0750398,16.3126629 40.5051181,16.7454068 C40.9366027,17.1798779 41.4465185,17.5286388 42.007874,17.7732283 C42.5887059,18.0283594 43.2169355,18.1577442 43.8513123,18.1528871 L43.8513123,18.1528871 Z" id="Shape"></path>
            <path d="M70.5660105,13.3299213 C70.573548,14.3578024 70.3701427,15.3763029 69.9683727,16.3224409 C69.1915577,18.1652457 67.7240846,19.6306461 65.8801837,20.4048556 C63.9613594,21.1998045 61.8053072,21.1998045 59.8864829,20.4048556 C58.0431929,19.6297363 56.5760179,18.1646336 55.798294,16.3224409 C55.0034339,14.4061003 55.0034339,12.2522987 55.798294,10.335958 C56.5760179,8.49376533 58.0431929,7.02866268 59.8864829,6.25354331 C60.8345439,5.85339701 61.8543162,5.65101446 62.8833333,5.65879265 C63.7404449,5.65295587 64.5921359,5.79506716 65.4009186,6.07887139 C66.1792905,6.35715017 66.9097661,6.75452891 67.566273,7.25682415 L67.566273,0.0115485564 L70.5645669,0.0115485564 L70.5645669,13.3299213 L70.5660105,13.3299213 Z M62.897769,18.0085302 C63.5205748,18.0116403 64.1374883,17.8878646 64.7108924,17.6447507 C65.839662,17.173779 66.7363675,16.2755166 67.2053806,15.1459318 C67.4480354,14.5714222 67.5713125,13.9535635 67.5677165,13.3299213 L67.5677165,13.3010499 C67.5723236,12.6819775 67.4489662,12.0686305 67.2053806,11.4994751 C66.7298358,10.3776313 65.8346572,9.48607899 64.7108924,9.01509186 C63.5508029,8.53004737 62.2447351,8.53004737 61.0846457,9.01509186 C60.5262186,9.24872724 60.0187147,9.58902456 59.5905512,10.0169291 C59.1630984,10.4483656 58.8203421,10.9561346 58.5800525,11.5139108 C58.0776501,12.672463 58.0776501,13.9873795 58.5800525,15.1459318 C58.8203421,15.7037079 59.1630984,16.2114769 59.5905512,16.6429134 C60.0191132,17.0703328 60.5265161,17.4105624 61.0846457,17.6447507 C61.6580498,17.8878646 62.2749633,18.0116403 62.897769,18.0085302 L62.897769,18.0085302 Z" id="Shape"></path>
            <path d="M84.938189,6.77322835 C85.5960836,7.20168358 86.168365,7.74899808 86.6257218,8.38713911 L84.938189,9.72677165 L84.3044619,10.2493438 C83.9710127,9.76325798 83.52537,9.36465531 83.0052493,9.08727034 C82.0292661,8.56274984 80.8679404,8.50964853 79.8481627,8.94291339 C79.4141067,9.1294463 79.0189387,9.39582967 78.6832021,9.72821522 C78.3500943,10.0622549 78.0835877,10.4566259 77.8979003,10.8902887 C77.7041935,11.3396481 77.6058814,11.8243271 77.6091864,12.3136483 L77.6091864,20.9447507 L74.6080052,20.9447507 L74.6080052,5.65879265 L77.6062992,5.65879265 L77.6062992,6.77322835 C78.1359555,6.41831298 78.7140446,6.14166649 79.3227034,5.95183727 C80.5925871,5.56143 81.9504575,5.56143 83.2203412,5.95183727 C83.8293841,6.141838 84.4079258,6.41846844 84.938189,6.77322835 L84.938189,6.77322835 Z" id="Shape"></path>
            <path d="M89.2458005,3.00406824 L89.2458005,0.0115485564 L92.2440945,0.0115485564 L92.2440945,3.00406824 L89.2458005,3.00406824 Z M92.2440945,5.65879265 L92.2440945,20.9721785 L89.2458005,20.9721785 L89.2458005,5.65879265 L92.2440945,5.65879265 Z" id="Shape"></path>
            <path d="M103.937008,17.9796588 C104.665015,17.9867211 105.383838,17.8167994 106.031627,17.4845144 C106.653407,17.1698474 107.199588,16.7241364 107.632546,16.178084 L110,18.0085302 C109.297301,18.9121834 108.402954,19.6487627 107.381365,20.1652231 C105.37972,21.1620814 103.043464,21.2390082 100.980577,20.3759843 C100.065606,19.9899379 99.2326918,19.4328653 98.5265092,18.7346457 C97.8200131,18.035754 97.2553181,17.2068484 96.8635171,16.2935696 C96.0608835,14.3887996 96.0608835,12.240728 96.8635171,10.335958 C97.2543798,9.42322731 97.8175437,8.59441086 98.5221785,7.89488189 C99.2283611,7.19666225 100.061275,6.63958966 100.976247,6.25354331 C104.171343,4.88236373 107.889572,5.85787118 110,8.62099738 L107.644094,10.4528871 C107.220264,9.89388883 106.672172,9.44118155 106.043176,9.13057743 C104.815012,8.53576836 103.391527,8.49271202 102.129659,9.01220472 C101.000972,9.47809321 100.101532,10.3702716 99.6265092,11.4951444 C99.1419263,12.649319 99.1419263,13.9498936 99.6265092,15.1040682 C99.8627193,15.6610867 100.206053,16.1662774 100.637008,16.5909449 C101.068544,17.0189472 101.576895,17.3617657 102.135433,17.6014436 C102.703259,17.8510026 103.316762,17.9797989 103.937008,17.9796588 L103.937008,17.9796588 Z" id="Shape"></path>
        </g>
    </g>
</svg>